# xmcd
#
# Track frame offsets:
#	150
#	14611
#	31272
#	46375
#	63706
#	77716
#	93002
#	106620
#	122814
#	138521
#	153742
#	169437
#
# Disc length: 2640 seconds
#
# Revision: 0
# Processed by: cddbd v1.5.2PL0 Copyright (c) Steve Scherf et al.
# Submitted via: EasyCDDAExtractor 15.3.0.1
#
DISCID=9d0a4e0c
DTITLE=Axel - Tus Ojos Mis Ojos
DYEAR=2014
DGENRE=Latin
TTITLE0=#MisOjos
TTITLE1=Quedate
TTITLE2=Afinidad
TTITLE3=Solo Una Vez
TTITLE4=Dame Un Beso
TTITLE5=Quiereme
TTITLE6=Siempre Estare (Featuring Dani Martin)
TTITLE7=Mucho Mas
TTITLE8=Y Que
TTITLE9=Somos Uno (Featuring Abel Pintos)
TTITLE10=Te Invito A Ver El Sol
TTITLE11=Duerme Ya
EXTD=
EXTT0=
EXTT1=
EXTT2=
EXTT3=
EXTT4=
EXTT5=
EXTT6=
EXTT7=
EXTT8=
EXTT9=
EXTT10=
EXTT11=
PLAYORDER=
